<?xml version="1.0" encoding="UTF-8" standalone="no"?>
<svg width="136.63" height="139.93" xmlns="http://www.w3.org/2000/svg">
 <defs>
  <linearGradient id="XMLID_5_" y1="1.0877" x2="11.483" x1="-4.2495" y2="-.93766">
   <stop id="stop6" stop-color="#fff" offset="0"/>
   <stop id="stop8" offset="1"/>
  </linearGradient>
  <linearGradient id="XMLID_6_" y1="-.53980" x2="2.9373" x1="-.52747" y2="2.9765">
   <stop id="stop23" stop-color="#fff" offset="0"/>
   <stop id="stop25" offset="1"/>
  </linearGradient>
  <linearGradient id="XMLID_7_" y1="2.4596" x2=".47809" x1=".50572" y2="-3.1224">
   <stop id="stop32" stop-color="#fff" offset="0"/>
   <stop id="stop34" offset="1"/>
  </linearGradient>
 </defs>
 <g id="g3">
  <path id="path10" fill="url(#XMLID_5_)" d="m72.091 74.14c3.581 3.572-8.446 12.3-10.79 14.646-1.712 1.71-2.968 3.632-5.416 1.184-1.849-1.848-5.454-4.218-6.557-6.557-3.576-3.577 8.446-12.302 10.792-14.648 4.709-4.708 8.258 1.66 11.971 5.375"/>
  <path id="path12" fill="#d8d8d8" d="m71.228 73.276c2.743 2.737-8.717 11.587-10.467 13.336-1.224 1.225-3.53 4.705-5.549 2.682-0.959-0.3-4.72-4.061-5.021-5.019-2.741-2.735 8.717-11.589 10.465-13.336 4.783-4.784 6.169-2.068 10.572 2.337"/>
  <path id="path14" fill="#fff" d="m68.419 70.466c1.1 1.099-7.806 8.928-8.473 9.596-0.887 0.886-8.555 10.287-9.505 4.464-0.014004-0.012001 14.224-20.902 17.978-14.06"/>
  <path id="path16" fill="#efefef" d="m135.73 43.441c0 23.181-19.358 42.537-42.539 42.537-23.179 0-42.537-19.355-42.537-42.537 0-23.183 19.354-42.539 42.537-42.539s42.539 19.356 42.539 42.539"/>
  <path id="path18" fill="#ccc" d="m93.188 82.369c-22.166 0-40.891-18.122-41.602-40.281-0.726 23.195 18.364 42.986 41.602 42.986 23.239 0 42.332-19.791 41.603-42.986-0.71001 22.16-19.437 40.281-41.603 40.281"/>
  <path id="path20" fill="#fff" d="m93.188 4.809c22.005 0 40.594 17.988 41.301 39.984 0.722-23.03-18.218-42.688-41.301-42.688-23.082 0-42.021 19.658-41.3 42.688 0.708-21.997 19.296-39.984 41.3-39.984"/>
  <path id="path27" fill="url(#XMLID_6_)" d="m49.75 43.441c0 23.646 19.796 43.438 43.438 43.438 23.645 0 43.44-19.792 43.44-43.438 0-23.645-19.795-43.441-43.44-43.441s-43.438 19.796-43.438 43.441m1.804 0c0-22.663 18.97-41.636 41.634-41.636 22.666 0 41.636 18.973 41.636 41.636s-18.971 41.633-41.636 41.633c-22.662 0-41.634-18.97-41.634-41.633"/>
  <path id="path29" fill="#68a0f2" d="m124.3 43.441c0 16.955-14.157 31.11-31.112 31.11-16.953 0-31.111-14.155-31.111-31.11 0-16.956 14.156-31.113 31.111-31.113 16.956 0 31.112 14.157 31.112 31.113"/>
  <path id="path36" fill="url(#XMLID_7_)" d="m125.83 43.434c0 17.786-14.853 32.64-32.64 32.64-17.786 0-32.637-14.854-32.637-32.64 0-17.787 14.851-32.64 32.637-32.64 17.787 0 32.64 14.853 32.64 32.64"/>
  <path id="path38" fill="#68a0f2" d="m123.21 43.434c0 16.359-13.658 30.02-30.02 30.02s-30.018-13.661-30.018-30.02c0-16.359 13.66-30.019 30.018-30.019 16.359 0 30.02 13.66 30.02 30.019"/>
  <path id="path40" fill="#4e8ad1" d="m65.487 49.818c0-16.076 12.837-31.233 29.681-29.945 17.836 1.363 28.511 20.072 25.004 36.651 9.54-19.619-5.212-43.108-26.983-43.108-21.77 0-36.521 23.49-26.983 43.108-0.466-2.204-0.719-4.454-0.719-6.706"/>
  <path id="path42" fill="#9fcbf7" d="m93.188 23.276c13.244 0 24.751 10.195 26.332 23.35 1.858-15.583-10.598-29.729-26.332-29.729-15.733 0-28.19 14.146-26.33 29.729 1.58-13.155 13.087-23.35 26.33-23.35"/>
  <path id="path44" fill="#ccc" d="m93.188 10.944c17.162 0 31.681 13.937 32.418 31.078 0.819-18.23-14.143-33.903-32.418-33.903-18.272 0-33.236 15.673-32.417 33.903 0.738-17.14 15.256-31.078 32.417-31.078"/>
  <path id="path46" fill="#fff" d="m93.188 76.161c-17.161 0-31.679-13.938-32.417-31.079-0.815 18.232 14.141 33.905 32.417 33.905 18.277 0 33.234-15.673 32.418-33.905-0.737 17.142-15.254 31.079-32.418 31.079"/>
  <path id="path48" fill="#3f3f3f" d="m58.198 87.266c11.145 11.147-13.293 28.379-20.07 35.158-4.459 4.458-8.918 8.919-13.379 13.378-7.021 7.021-15.12 1.841-20.25-4.402-11.147-11.146 13.291-28.378 20.069-35.157 4.459-4.458 8.92-8.918 13.378-13.376 7.481-7.479 14.58-1.27 20.252 4.399"/>
  <path id="path67" d="m37.217 81.848c-9.242 9.241-18.485 18.482-27.727 27.722-4.583 4.585-10.736 9.164-9.269 16.56 1.92 9.668 16.26 18.755 24.313 10.688 9.937-8.191 18.625-18.623 27.729-27.726 4.583-4.585 10.732-9.161 9.267-16.556-1.918-9.672-16.258-18.75-24.313-10.688m-27.77 53.696c-5.121-5.12-11.57-11.811-4.611-18.768 4.186-4.187 8.369-8.37 12.555-12.553 5.768-5.769 11.539-11.54 17.31-17.309 4.757-4.757 11.213-10.189 17.604-3.793 5.646 4.615 11.143 12.237 4.612 18.766-4.185 4.184-8.368 8.368-12.554 12.555-5.77 5.768-11.541 11.539-17.311 17.31-4.757 4.754-11.215 10.189-17.605 3.792"/>
  <path id="path69" fill="#7f7f7f" d="m50.953 83.573c-8.149-5.929-27.053 18.665-32.015 24.03-4.151 4.489-9.045 8.355-13.081 12.894-7.553 8.491 7.865 3.586 6.394 8.331 0.504-1.624-1.021-4.747-0.813-6.643 0.407-3.692 3.35-6.515 5.936-8.896 4.288-3.949 9.023-7.575 13.811-10.901 2.262-1.569 24.103-15.835 19.768-18.815"/>
  <path id="path71" d="m16.352 138.4c5.05 0 8.181-4.134 11.422-7.374 4.836-4.837 9.673-9.673 14.509-14.508 5.996-5.999 24.295-18.755 14.917-28.48 0.549 3.443-4.391 6.713-6.647 8.691-5.332 4.666-10.871 9.105-16.001 13.996-5.251 5.013-9.218 10.933-13.355 16.847-2.819 4.029-5.986 8.883-11.612 8.08 1.811 1.749 4.247 2.748 6.767 2.748"/>
  <path id="path73" d="m25.048 129.57c-1.585 1.109-13.823 7.875-6.614 8.117 4.056 0.26099 7.599-4.946 10.067-7.513 7.978-8.291 16.234-16.32 24.479-24.343 2.779-2.706 6.214-5.673 6.712-9.71 0.052998-0.428 0.302-6.841-1.257-6.1-1.758 0.834-2.655 6.643-3.927 8.282-4.071 5.24-9.568 9.369-14.597 13.633-5.937 5.034-8.501 13.178-14.863 17.634"/>
 </g>
</svg>
